<svg width="692" height="700" viewBox="0 0 692 700" fill="none" xmlns="http://www.w3.org/2000/svg">
<g filter="url(#filter0_d)">
<path d="M478.401 162.412L357.147 576.804L120.235 403.534L478.401 162.412Z" fill="#A8FF78"/>
</g>
<path d="M514.765 147.756L321.644 533.926L119.38 321.232L514.765 147.756Z" fill="#36D1DC"/>
<path d="M537.48 137.019L295.506 494.611L122.8 257.287L537.48 137.019Z" fill="#FF5E62"/>
<g style="mix-blend-mode:hard-light" filter="url(#filter1_d)">
<g style="mix-blend-mode:hard-light">
<path d="M407.351 248.768H230.021V299.433H407.351V248.768Z" fill="#FFFCDC"/>
</g>
</g>
<path d="M283.044 266.892H285.403V282.185H283.022L270.81 270.169C270.897 271.116 270.985 272.063 271.072 273.009C271.174 273.941 271.225 274.881 271.225 275.828V282.185H268.866V266.892H271.203L283.415 279.214C283.313 278.5 283.233 277.721 283.175 276.876C283.131 276.031 283.095 275.187 283.066 274.342C283.051 273.483 283.044 272.674 283.044 271.917V266.892ZM293.357 266.892H306.05V269.164H295.717V273.206H304.849V275.478H295.717V279.913H306.05V282.185H293.357V266.892ZM317.539 282.185V269.164H311.728V266.892H325.84V269.164H319.898V282.185H317.539ZM345.927 279.913C345.519 280.248 344.965 280.612 344.266 281.005C343.567 281.398 342.766 281.733 341.863 282.01C340.96 282.272 339.999 282.403 338.979 282.403C337.741 282.403 336.583 282.221 335.506 281.857C334.443 281.479 333.51 280.947 332.709 280.262C331.908 279.578 331.282 278.755 330.831 277.794C330.379 276.818 330.153 275.733 330.153 274.539C330.153 273.417 330.386 272.383 330.852 271.436C331.318 270.49 331.959 269.667 332.775 268.968C333.605 268.269 334.552 267.73 335.615 267.351C336.678 266.958 337.8 266.761 338.979 266.761C339.97 266.761 340.916 266.885 341.819 267.133C342.722 267.38 343.538 267.701 344.266 268.094C345.009 268.487 345.599 268.895 346.036 269.317L344.638 271.305C343.851 270.664 342.977 270.133 342.016 269.711C341.055 269.288 339.97 269.077 338.761 269.077C337.989 269.077 337.232 269.208 336.489 269.47C335.746 269.718 335.076 270.082 334.479 270.563C333.896 271.029 333.43 271.597 333.081 272.267C332.731 272.937 332.556 273.694 332.556 274.539C332.556 275.456 332.739 276.265 333.103 276.964C333.467 277.648 333.955 278.231 334.566 278.711C335.193 279.177 335.899 279.527 336.685 279.76C337.486 279.993 338.309 280.109 339.154 280.109C340.028 280.109 340.807 280 341.492 279.782C342.176 279.549 342.788 279.265 343.327 278.93C343.866 278.595 344.354 278.267 344.791 277.947L345.927 279.913ZM355.134 266.892V273.512H365.817V266.892H368.176V282.185H365.817V275.784H355.134V282.185H352.775V266.892H355.134Z" fill="black"/>
<defs>
<filter id="filter0_d" x="120.235" y="162.412" width="462.166" height="448.392" filterUnits="userSpaceOnUse" color-interpolation-filters="sRGB">
<feFlood flood-opacity="0" result="BackgroundImageFix"/>
<feColorMatrix in="SourceAlpha" type="matrix" values="0 0 0 0 0 0 0 0 0 0 0 0 0 0 0 0 0 0 127 0"/>
<feOffset dx="100" dy="30"/>
<feGaussianBlur stdDeviation="2"/>
<feColorMatrix type="matrix" values="0 0 0 0 0 0 0 0 0 0 0 0 0 0 0 0 0 0 0.15 0"/>
<feBlend mode="normal" in2="BackgroundImageFix" result="effect1_dropShadow"/>
<feBlend mode="normal" in="SourceGraphic" in2="effect1_dropShadow" result="shape"/>
</filter>
<filter id="filter1_d" x="226.021" y="248.768" width="185.329" height="58.6655" filterUnits="userSpaceOnUse" color-interpolation-filters="sRGB">
<feFlood flood-opacity="0" result="BackgroundImageFix"/>
<feColorMatrix in="SourceAlpha" type="matrix" values="0 0 0 0 0 0 0 0 0 0 0 0 0 0 0 0 0 0 127 0"/>
<feOffset dy="4"/>
<feGaussianBlur stdDeviation="2"/>
<feColorMatrix type="matrix" values="0 0 0 0 0 0 0 0 0 0 0 0 0 0 0 0 0 0 0.25 0"/>
<feBlend mode="normal" in2="BackgroundImageFix" result="effect1_dropShadow"/>
<feBlend mode="normal" in="SourceGraphic" in2="effect1_dropShadow" result="shape"/>
</filter>
</defs>
</svg>
