<svg width="1600" height="900" viewBox="0 0 1600 900" fill="none" xmlns="http://www.w3.org/2000/svg">
<rect width="1600" height="900" fill="#536DFE"/>
<path d="M862.5 387.5H737.5V512.5H862.5V387.5ZM820.833 470.833H779.167V429.167H820.833V470.833ZM987.5 429.167V387.5H945.833V345.833C945.833 322.917 927.083 304.167 904.167 304.167H862.5V262.5H820.833V304.167H779.167V262.5H737.5V304.167H695.833C672.917 304.167 654.167 322.917 654.167 345.833V387.5H612.5V429.167H654.167V470.833H612.5V512.5H654.167V554.167C654.167 577.083 672.917 595.833 695.833 595.833H737.5V637.5H779.167V595.833H820.833V637.5H862.5V595.833H904.167C927.083 595.833 945.833 577.083 945.833 554.167V512.5H987.5V470.833H945.833V429.167H987.5ZM904.167 554.167H695.833V345.833H904.167V554.167Z" fill="white"/>
</svg>
