<svg width="1600" height="900" viewBox="0 0 1600 900" fill="none" xmlns="http://www.w3.org/2000/svg">
<rect width="1600" height="900" fill="#536DFE"/>
<path d="M795.83 427.083C748.538 414.792 733.33 402.083 733.33 382.292C733.33 359.583 754.371 343.75 789.58 343.75C826.663 343.75 840.413 361.458 841.663 387.5H887.705C886.246 351.667 864.371 318.75 820.83 308.125V262.5H758.33V307.5C717.913 316.25 685.413 342.5 685.413 382.708C685.413 430.833 725.205 454.792 783.33 468.75C835.413 481.25 845.83 499.583 845.83 518.958C845.83 533.333 835.621 556.25 789.58 556.25C746.663 556.25 729.788 537.083 727.496 512.5H681.663C684.163 558.125 718.33 583.75 758.33 592.292V637.5H820.83V592.708C861.455 585 893.746 561.458 893.746 518.75C893.746 459.583 843.121 439.375 795.83 427.083Z" fill="white"/>
</svg>
