<svg width="2000" height="1500" viewBox="0 0 2000 1500" fill="none" xmlns="http://www.w3.org/2000/svg">
<rect width="2000" height="1500" fill="white"/>
<g filter="url(#filter0_d)">
<path d="M1134.07 457.335L1011.38 876.634L771.659 701.313L1134.07 457.335Z" fill="#A8FF78"/>
</g>
<path d="M1170.86 442.505L975.453 833.248L770.793 618.036L1170.86 442.505Z" fill="#36D1DC"/>
<path d="M1193.84 431.641L949.005 793.468L774.255 553.334L1193.84 431.641Z" fill="#FF5E62"/>
<g style="mix-blend-mode:hard-light" filter="url(#filter1_d)">
<g style="mix-blend-mode:hard-light">
<path d="M1062.17 544.714H882.745V595.979H1062.17V544.714Z" fill="#FFFCDC"/>
</g>
</g>
<path d="M936.396 563.053H938.783V578.526H936.374L924.017 566.368C924.105 567.326 924.194 568.284 924.282 569.242C924.385 570.185 924.437 571.136 924.437 572.094V578.526H922.049V563.053H924.415L936.772 575.52C936.668 574.798 936.587 574.009 936.528 573.155C936.484 572.3 936.447 571.445 936.418 570.59C936.403 569.721 936.396 568.903 936.396 568.137V563.053ZM946.831 563.053H959.674V565.352H949.219V569.441H958.459V571.74H949.219V576.227H959.674V578.526H946.831V563.053ZM971.299 578.526V565.352H965.419V563.053H979.699V565.352H973.686V578.526H971.299ZM1000.02 576.227C999.61 576.566 999.05 576.935 998.343 577.333C997.636 577.73 996.825 578.069 995.911 578.349C994.998 578.615 994.025 578.747 992.994 578.747C991.741 578.747 990.569 578.563 989.479 578.195C988.403 577.812 987.46 577.274 986.649 576.581C985.839 575.888 985.205 575.056 984.748 574.083C984.291 573.096 984.063 571.998 984.063 570.789C984.063 569.655 984.299 568.608 984.77 567.65C985.242 566.693 985.89 565.86 986.716 565.153C987.556 564.445 988.514 563.9 989.589 563.517C990.665 563.119 991.8 562.92 992.994 562.92C993.996 562.92 994.954 563.045 995.867 563.296C996.781 563.546 997.606 563.87 998.343 564.268C999.095 564.666 999.691 565.079 1000.13 565.506L998.719 567.518C997.923 566.869 997.039 566.331 996.066 565.904C995.094 565.477 993.996 565.263 992.772 565.263C991.991 565.263 991.225 565.396 990.474 565.661C989.722 565.912 989.044 566.28 988.44 566.766C987.85 567.238 987.379 567.813 987.025 568.49C986.671 569.168 986.495 569.935 986.495 570.789C986.495 571.718 986.679 572.536 987.047 573.243C987.416 573.936 987.909 574.525 988.528 575.012C989.162 575.483 989.877 575.837 990.672 576.073C991.483 576.308 992.316 576.426 993.17 576.426C994.055 576.426 994.843 576.316 995.536 576.095C996.228 575.859 996.847 575.572 997.392 575.233C997.938 574.894 998.431 574.562 998.874 574.238L1000.02 576.227ZM1009.34 563.053V569.75H1020.15V563.053H1022.54V578.526H1020.15V572.049H1009.34V578.526H1006.95V563.053H1009.34Z" fill="black"/>
<defs>
<filter id="filter0_d" x="771.659" y="457.335" width="466.407" height="453.299" filterUnits="userSpaceOnUse" color-interpolation-filters="sRGB">
<feFlood flood-opacity="0" result="BackgroundImageFix"/>
<feColorMatrix in="SourceAlpha" type="matrix" values="0 0 0 0 0 0 0 0 0 0 0 0 0 0 0 0 0 0 127 0"/>
<feOffset dx="100" dy="30"/>
<feGaussianBlur stdDeviation="2"/>
<feColorMatrix type="matrix" values="0 0 0 0 0 0 0 0 0 0 0 0 0 0 0 0 0 0 0.15 0"/>
<feBlend mode="normal" in2="BackgroundImageFix" result="effect1_dropShadow"/>
<feBlend mode="normal" in="SourceGraphic" in2="effect1_dropShadow" result="shape"/>
</filter>
<filter id="filter1_d" x="878.745" y="544.714" width="187.429" height="59.2655" filterUnits="userSpaceOnUse" color-interpolation-filters="sRGB">
<feFlood flood-opacity="0" result="BackgroundImageFix"/>
<feColorMatrix in="SourceAlpha" type="matrix" values="0 0 0 0 0 0 0 0 0 0 0 0 0 0 0 0 0 0 127 0"/>
<feOffset dy="4"/>
<feGaussianBlur stdDeviation="2"/>
<feColorMatrix type="matrix" values="0 0 0 0 0 0 0 0 0 0 0 0 0 0 0 0 0 0 0.25 0"/>
<feBlend mode="normal" in2="BackgroundImageFix" result="effect1_dropShadow"/>
<feBlend mode="normal" in="SourceGraphic" in2="effect1_dropShadow" result="shape"/>
</filter>
</defs>
</svg>
