<svg width="2000" height="1500" viewBox="0 0 2000 1500" fill="none" xmlns="http://www.w3.org/2000/svg">
<rect width="2000" height="1500" fill="white"/>
<g filter="url(#filter0_d)">
<rect x="963" y="443" width="640" height="370" rx="11" fill="#FAFAFA"/>
</g>
<path d="M963 454C963 447.925 967.925 443 974 443H1592C1598.08 443 1603 447.925 1603 454V477.906H963V454Z" fill="#FF5E62"/>
<rect x="987.381" y="512.811" width="114.286" height="90.7547" rx="11" fill="#36D1DC"/>
<rect x="1139.76" y="512.811" width="114.286" height="90.7547" rx="11" fill="#36D1DC"/>
<rect x="1306.62" y="512.811" width="272" height="90.7547" rx="11" fill="#36D1DC"/>
<rect x="987.381" y="638.472" width="266.667" height="90.7547" rx="11" fill="#36D1DC"/>
<rect x="1306.62" y="638.472" width="272" height="90.7547" rx="11" fill="#A8FF78"/>
<ellipse cx="987" cy="460.802" rx="9.52381" ry="8.72641" fill="#FFFCDC"/>
<ellipse cx="1021.29" cy="460.802" rx="9.52381" ry="8.72641" fill="#FFFCDC"/>
<ellipse cx="1055.57" cy="460.802" rx="9.52381" ry="8.72641" fill="#FFFCDC"/>
<defs>
<filter id="filter0_d" x="963" y="443" width="744" height="404" filterUnits="userSpaceOnUse" color-interpolation-filters="sRGB">
<feFlood flood-opacity="0" result="BackgroundImageFix"/>
<feColorMatrix in="SourceAlpha" type="matrix" values="0 0 0 0 0 0 0 0 0 0 0 0 0 0 0 0 0 0 127 0"/>
<feOffset dx="100" dy="30"/>
<feGaussianBlur stdDeviation="2"/>
<feColorMatrix type="matrix" values="0 0 0 0 0 0 0 0 0 0 0 0 0 0 0 0 0 0 0.15 0"/>
<feBlend mode="normal" in2="BackgroundImageFix" result="effect1_dropShadow"/>
<feBlend mode="normal" in="SourceGraphic" in2="effect1_dropShadow" result="shape"/>
</filter>
</defs>
</svg>
