<svg width="1600" height="900" viewBox="0 0 1600 900" fill="none" xmlns="http://www.w3.org/2000/svg">
<rect width="1600" height="900" fill="#536DFE"/>
<path d="M974.587 378.544L948.962 417.086C961.32 441.733 967.37 469.061 966.57 496.621C965.77 524.182 958.145 551.113 944.378 575.002H655.628C637.736 543.963 630.322 507.984 634.486 472.399C638.649 436.815 654.168 403.519 678.743 377.449C703.317 351.378 735.638 333.92 770.915 327.663C806.191 321.405 842.545 326.682 874.587 342.711L913.128 317.086C873.888 291.923 827.343 280.648 780.939 285.063C734.534 289.479 690.95 309.329 657.16 341.44C623.369 373.551 601.323 416.066 594.55 462.186C587.776 508.305 596.665 555.365 619.795 595.836C623.431 602.133 628.651 607.369 634.937 611.024C641.224 614.679 648.357 616.625 655.628 616.669H944.17C951.512 616.698 958.732 614.787 965.097 611.128C971.463 607.47 976.749 602.194 980.42 595.836C999.615 562.584 1009.25 524.674 1008.26 486.293C1007.26 447.911 995.683 410.551 974.795 378.336L974.587 378.544Z" fill="white"/>
<path d="M770.625 521.04C774.495 524.914 779.09 527.987 784.148 530.084C789.207 532.181 794.629 533.26 800.104 533.26C805.58 533.26 811.002 532.181 816.06 530.084C821.118 527.987 825.714 524.914 829.583 521.04L947.5 344.165L770.625 462.082C766.751 465.951 763.678 470.547 761.581 475.605C759.484 480.663 758.405 486.085 758.405 491.561C758.405 497.037 759.484 502.458 761.581 507.517C763.678 512.575 766.751 517.17 770.625 521.04V521.04Z" fill="white"/>
</svg>
